<?xml version="1.0" standalone="no"?>
<!DOCTYPE svg PUBLIC "-//W3C//DTD SVG 20010904//EN"
 "http://www.w3.org/TR/2001/REC-SVG-20010904/DTD/svg10.dtd">
<svg version="1.0" xmlns="http://www.w3.org/2000/svg"
 width="536.000000pt" height="437.000000pt" viewBox="0 0 536.000000 437.000000"
 preserveAspectRatio="xMidYMid meet">

<g transform="translate(0.000000,437.000000) scale(0.100000,-0.100000)"
fill="#000000" stroke="none">
<path d="M4497 4104 c-7 -12 -77 -200 -77 -208 0 -3 100 -6 223 -7 l222 0 -95
-38 c-52 -21 -129 -54 -170 -73 l-76 -36 -27 -69 c-15 -37 -27 -74 -27 -81 0
-9 37 -12 143 -12 98 0 147 -4 155 -12 19 -19 14 -77 -9 -115 -39 -63 -61 -68
-283 -69 l-199 -1 -33 -45 c-38 -53 -98 -103 -174 -147 l-55 -31 315 0 c344 0
387 5 483 57 63 35 147 127 183 199 32 66 42 153 25 207 -14 41 -72 97 -101
97 -36 0 -20 14 71 65 50 28 103 61 118 75 24 21 100 176 113 228 2 11 -65 15
-358 19 -205 3 -363 2 -367 -3z"/>
<path d="M1955 3355 c-455 -64 -829 -316 -1015 -685 -52 -104 -97 -228 -121
-340 -30 -135 -32 -331 -5 -430 61 -222 213 -365 461 -432 74 -19 112 -22 495
-27 461 -7 447 -5 491 -74 16 -25 19 -44 16 -87 -13 -147 -125 -267 -307 -326
-51 -17 -112 -19 -766 -22 l-712 -3 -60 -167 c-115 -320 -192 -540 -192 -552
0 -8 217 -10 848 -8 823 4 850 5 942 25 208 47 355 111 523 226 332 227 548
632 548 1027 0 216 -49 349 -176 475 -104 105 -222 158 -410 185 -38 5 -230
10 -425 10 -397 0 -402 1 -448 70 -31 46 -26 107 17 194 37 76 90 126 177 167
118 57 145 59 771 59 l573 0 24 48 c37 73 136 202 197 255 127 113 262 183
413 216 69 15 97 28 172 79 49 33 107 76 129 95 l40 36 -1055 0 c-794 -1
-1077 -4 -1145 -14z"/>
</g>
</svg>
